# xmcd
#
# Track frame offsets: 
#        150
#        21232
#        44287
#        67132
#        81320
#        97515
#        108866
#        122460
#        143132
#        163290
#
# Disc length: 2549 seconds
#
# Revision: 2
# Processed by: cddbd v1.5.1PL0 Copyright (c) Steve Scherf et al.
# Submitted via: ExactAudioCopy v0.95a5
#
DISCID=7e09f30a
DTITLE=Buddy Guy and Junior Wells - The Real Blues
DYEAR=1900
DGENRE=Blues
TTITLE0=Buddy's blues
TTITLE1=Blue Monday
TTITLE2=Everyday I have the blues
TTITLE3=Woman blues
TTITLE4=Satisfaction
TTITLE5=Messin' with the kid
TTITLE6=No use cryin'
TTITLE7=Just to be with you
TTITLE8=Junior's shuffle
TTITLE9=Out of sight
EXTD=ID3G:   0
EXTT0=
EXTT1=
EXTT2=
EXTT3=
EXTT4=
EXTT5=
EXTT6=
EXTT7=
EXTT8=
EXTT9=
PLAYORDER=
